<svg width="175" height="22" viewBox="0 0 175 22" fill="none" xmlns="http://www.w3.org/2000/svg">
<path d="M0.53 21V0.359999H7.55V21H0.53ZM12.1081 21V10.2H9.58813V5.7H12.1081V1.26H18.6481V5.7H21.7081V10.2H18.6481V21H12.1081ZM31.6726 21V0.359999H41.2726L43.5826 10.05H43.8526L46.1326 0.359999H55.7026V21H49.0126V9.39H48.6826L45.9226 21H41.2726L38.5126 9.39H38.1826V21H31.6726ZM57.0922 21L62.8222 0.359999H72.5722L78.3022 21H71.3422L70.5922 17.91H64.6222L63.9022 21H57.0922ZM65.7622 13.11H69.4222L67.7122 6H67.4422L65.7622 13.11ZM82.2425 21V5.64H77.2025V0.359999H94.3325V5.64H89.2625V21H82.2425ZM97.7405 21V5.64H92.7005V0.359999H109.831V5.64H104.761V21H97.7405ZM111.741 21V0.359999H126.861V5.37H118.731V8.13H125.451V13.02H118.731V15.99H126.861V21H111.741ZM129.817 21V0.359999H140.677C142.057 0.359999 143.167 0.499999 144.007 0.779999C144.867 1.06 145.517 1.49 145.957 2.07C146.397 2.63 146.687 3.35 146.827 4.23C146.987 5.09 147.067 6.1 147.067 7.26C147.067 8.2 147.007 9.06 146.887 9.84C146.787 10.6 146.567 11.27 146.227 11.85C145.887 12.43 145.377 12.91 144.697 13.29L147.517 21H140.317L137.857 12.84L139.597 13.83C139.397 13.97 139.187 14.06 138.967 14.1C138.767 14.12 138.497 14.13 138.157 14.13H136.837V21H129.817ZM136.837 9.48H138.097C138.517 9.48 138.857 9.47 139.117 9.45C139.377 9.41 139.577 9.33 139.717 9.21C139.857 9.07 139.947 8.86 139.987 8.58C140.027 8.28 140.047 7.88 140.047 7.38C140.047 6.9 140.037 6.52 140.017 6.24C139.997 5.96 139.927 5.75 139.807 5.61C139.687 5.47 139.487 5.38 139.207 5.34C138.947 5.28 138.567 5.25 138.067 5.25H136.837V9.48ZM157.838 21.24C156.978 21.24 156.058 21.21 155.078 21.15C154.098 21.11 153.148 21.05 152.228 20.97C151.308 20.89 150.508 20.8 149.828 20.7V15.93C150.568 15.99 151.288 16.05 151.988 16.11C152.708 16.15 153.378 16.18 153.998 16.2C154.638 16.22 155.178 16.23 155.618 16.23C156.418 16.23 157.018 16.22 157.418 16.2C157.818 16.16 158.088 16.09 158.228 15.99C158.328 15.91 158.398 15.82 158.438 15.72C158.478 15.62 158.498 15.5 158.498 15.36C158.518 15.22 158.528 15.06 158.528 14.88C158.528 14.58 158.498 14.35 158.438 14.19C158.378 14.03 158.258 13.91 158.078 13.83C157.898 13.73 157.628 13.65 157.268 13.59C156.908 13.53 156.428 13.46 155.828 13.38L152.318 12.93C151.698 12.85 151.188 12.65 150.788 12.33C150.388 11.99 150.068 11.55 149.828 11.01C149.608 10.45 149.448 9.79 149.348 9.03C149.268 8.25 149.228 7.39 149.228 6.45C149.228 5.09 149.438 4 149.858 3.18C150.278 2.34 150.858 1.7 151.598 1.26C152.358 0.819999 153.228 0.52 154.208 0.359999C155.188 0.199999 156.248 0.119999 157.388 0.119999C158.228 0.119999 159.088 0.149999 159.968 0.209999C160.868 0.269999 161.708 0.349998 162.488 0.449998C163.288 0.529998 163.948 0.629999 164.468 0.75V5.46C163.968 5.4 163.368 5.35 162.668 5.31C161.988 5.25 161.288 5.21 160.568 5.19C159.848 5.15 159.168 5.13 158.528 5.13C158.048 5.13 157.658 5.14 157.358 5.16C157.058 5.18 156.828 5.24 156.668 5.34C156.508 5.44 156.388 5.57 156.308 5.73C156.248 5.87 156.218 6.05 156.218 6.27C156.218 6.61 156.248 6.87 156.308 7.05C156.368 7.23 156.518 7.36 156.758 7.44C156.998 7.5 157.378 7.57 157.898 7.65L161.048 8.04C161.568 8.1 162.058 8.2 162.518 8.34C162.978 8.48 163.408 8.7 163.808 9C164.208 9.28 164.558 9.71 164.858 10.29C164.998 10.53 165.108 10.84 165.188 11.22C165.288 11.6 165.368 12.05 165.428 12.57C165.488 13.07 165.518 13.65 165.518 14.31C165.518 15.57 165.388 16.62 165.128 17.46C164.888 18.3 164.528 18.97 164.048 19.47C163.588 19.97 163.038 20.35 162.398 20.61C161.758 20.87 161.048 21.04 160.268 21.12C159.508 21.2 158.698 21.24 157.838 21.24ZM168.44 21V15.87H175.01V21H168.44Z" fill="black"/>
</svg>
